<svg width="23" height="21" viewBox="0 0 23 21" fill="none" xmlns="http://www.w3.org/2000/svg">
<path d="M22.3267 10.3623C22.3277 9.67187 22.262 8.98267 22.1306 8.30225H11.3893V12.2042H17.5414C17.4155 12.8274 17.1491 13.4215 16.7581 13.9506C16.3672 14.4797 15.8598 14.9329 15.2666 15.283V17.8158H18.9382C21.0881 16.0527 22.3267 13.4453 22.3267 10.3623Z" fill="#4285F4"/>
<path d="M11.3892 20.2628C14.4629 20.2628 17.0509 19.3651 18.9381 17.8172L15.2665 15.2844C14.2446 15.9007 12.9284 16.2525 11.3892 16.2525C8.4184 16.2525 5.89682 14.4711 4.99513 12.0706H1.21277V14.6808C2.16076 16.3587 3.6144 17.7693 5.4114 18.755C7.2084 19.7407 9.27803 20.2627 11.3892 20.2628Z" fill="#34A853"/>
<path d="M4.99517 12.0715C4.51848 10.8136 4.51848 9.45136 4.99517 8.19346V5.58325H1.21281C0.415329 6.99481 0 8.55269 0 10.1325C0 11.7122 0.415329 13.2701 1.21281 14.6817L4.99517 12.0715Z" fill="#FBBC04"/>
<path d="M11.3895 4.01095C13.0138 3.98735 14.5833 4.53324 15.7587 5.53064L19.0096 2.63901C16.9482 0.916806 14.2173 -0.0287146 11.3895 0.000664705C9.27827 0.000750293 7.20864 0.522783 5.41164 1.50848C3.61464 2.49418 2.161 3.90475 1.21301 5.58271L4.99537 8.19291C5.89707 5.79237 8.41864 4.01095 11.3895 4.01095Z" fill="#EA4335"/>
</svg>
