<svg width="24" height="21" viewBox="0 0 24 21" fill="none" xmlns="http://www.w3.org/2000/svg">
<path d="M23.6087 10.5C23.6087 4.70101 18.3237 0 11.8044 0C5.28498 0 0 4.70101 0 10.5C0 15.7409 4.31667 20.0847 9.95992 20.8724V13.5352H6.96273V10.5H9.95992V8.18673C9.95992 5.55515 11.7222 4.10157 14.4186 4.10157C15.7101 4.10157 17.061 4.30664 17.061 4.30664V6.89063H15.5725C14.1061 6.89063 13.6488 7.70001 13.6488 8.53038V10.5H16.9226L16.3993 13.5352H13.6488V20.8724C19.292 20.0847 23.6087 15.7409 23.6087 10.5Z" fill="#1877F2"/>
<path d="M16.3993 13.5352L16.9226 10.5H13.6488V8.53036C13.6488 7.70001 14.1061 6.89062 15.5725 6.89062H17.061V4.30664C17.061 4.30664 15.7101 4.10156 14.4186 4.10156C11.7222 4.10156 9.9599 5.55515 9.9599 8.18672V10.5H6.96271V13.5352H9.9599V20.8724C10.5701 20.9575 11.1867 21.0001 11.8043 21C12.4318 21 13.0478 20.9563 13.6488 20.8724V13.5352H16.3993Z" fill="white"/>
</svg>
