<svg width="20" height="21" viewBox="0 0 20 21" fill="none" xmlns="http://www.w3.org/2000/svg">
<path d="M19.4693 16.3654C19.1123 17.0991 18.6897 17.7744 18.2 18.3953C17.5326 19.2418 16.9861 19.8277 16.5649 20.1531C15.9121 20.6871 15.2126 20.9606 14.4635 20.9762C13.9258 20.9762 13.2773 20.8401 12.5224 20.564C11.7651 20.2892 11.0691 20.153 10.4327 20.153C9.76526 20.153 9.04942 20.2892 8.28379 20.564C7.51696 20.8401 6.89922 20.984 6.4269 20.9982C5.70862 21.0254 4.99266 20.7441 4.27801 20.153C3.82187 19.7992 3.25135 19.1925 2.56787 18.3331C1.83457 17.4153 1.2317 16.3511 0.75939 15.1378C0.253567 13.8273 0 12.5583 0 11.3297C0 9.92235 0.341881 8.70853 1.02666 7.69136C1.56484 6.87433 2.28079 6.22983 3.17688 5.75671C4.07295 5.28357 5.04118 5.04245 6.08387 5.02705C6.6544 5.02705 7.40255 5.18402 8.33231 5.49253C9.25944 5.80208 9.85473 5.95905 10.1157 5.95905C10.3109 5.95905 10.9722 5.77549 12.0933 5.40957C13.1535 5.07021 14.0482 4.92967 14.7812 4.98504C16.7675 5.12762 18.2598 5.8241 19.2522 7.07889C17.4757 8.03631 16.597 9.37727 16.6145 11.0975C16.6305 12.4375 17.177 13.5525 18.251 14.4379C18.7377 14.8488 19.2813 15.1664 19.8861 15.3919C19.7549 15.7302 19.6165 16.0543 19.4693 16.3654V16.3654ZM14.9138 0.420125C14.9138 1.47036 14.4825 2.45097 13.6227 3.35861C12.5851 4.43762 11.3301 5.06111 9.96913 4.96273C9.9509 4.8307 9.94175 4.6978 9.94173 4.56477C9.94173 3.55655 10.4352 2.47754 11.3114 1.59531C11.7489 1.14862 12.3053 0.777207 12.98 0.480921C13.6533 0.189057 14.2901 0.0276475 14.8891 0C14.9066 0.140395 14.9138 0.280808 14.9138 0.420107V0.420125Z" fill="black"/>
</svg>
